<svg width="456" height="361" viewBox="0 0 456 361" fill="none" xmlns="http://www.w3.org/2000/svg">
<path opacity="0.2" d="M97.82 104.97C100.275 100.153 104.08 96.1951 108.725 93.6304C104.08 91.0671 100.275 87.1096 97.82 82.2922C95.3653 87.1096 91.5586 91.0671 86.9146 93.6304C91.5586 96.1951 95.3653 100.153 97.82 104.97ZM100.017 75.2372C101.973 83.0859 107.889 89.2629 115.455 91.3625L123.64 93.6304L115.455 95.8997C107.889 97.9992 101.973 104.176 100.017 112.026L97.8186 120.841L95.6213 112.026C93.6653 104.176 87.7506 97.9992 80.1853 95.8997L72 93.6304L80.1853 91.3625C87.7506 89.2629 93.6653 83.0859 95.6213 75.2372L97.8186 66.4209L100.017 75.2372Z" fill="white"/>
<path opacity="0.2" d="M435 94.762C436.521 91.7377 438.879 89.2533 441.758 87.6433C438.879 86.0341 436.521 83.5497 435 80.5254C433.479 83.5497 431.12 86.0341 428.242 87.6433C431.12 89.2533 433.479 91.7377 435 94.762ZM436.362 76.0965C437.574 81.0237 441.24 84.9015 445.928 86.2195L451 87.6433L445.928 89.0679C441.24 90.3859 437.574 94.2637 436.362 99.1918L434.999 104.726L433.638 99.1918C432.425 94.2637 428.76 90.3859 424.072 89.0679L419 87.6433L424.072 86.2195C428.76 84.9015 432.425 81.0237 433.638 76.0965L434.999 70.5618L436.362 76.0965Z" fill="white"/>
<path opacity="0.2" d="M16 292.498C17.5211 289.473 19.8792 286.989 22.7578 285.379C19.8792 283.77 17.5211 281.285 16 278.261C14.4789 281.285 12.12 283.77 9.24223 285.379C12.12 286.989 14.4789 289.473 16 292.498ZM17.3616 273.832C18.5737 278.759 22.2397 282.637 26.9278 283.955L32 285.379L26.9278 286.804C22.2397 288.122 18.5737 291.999 17.3616 296.928L15.9992 302.461L14.6375 296.928C13.4255 291.999 9.76029 288.122 5.07224 286.804L0 285.379L5.07224 283.955C9.76029 282.637 13.4255 278.759 14.6375 273.832L15.9992 268.298L17.3616 273.832Z" fill="white"/>
<path opacity="0.2" d="M55.2933 189.099C55.2933 185.221 52.2463 182.066 48.4994 182.066C44.7547 182.066 41.7056 185.221 41.7056 189.099C41.7056 192.977 44.7547 196.134 48.4994 196.134C52.2463 196.134 55.2933 192.977 55.2933 189.099ZM59 189.099C59 195.094 54.2885 199.97 48.4994 199.97C42.7103 199.97 38 195.094 38 189.099C38 183.105 42.7103 178.23 48.4994 178.23C54.2885 178.23 59 183.105 59 189.099Z" fill="white"/>
<path opacity="0.2" d="M311.293 11.0336C311.293 7.15564 308.246 4.00008 304.499 4.00008C300.755 4.00008 297.706 7.15564 297.706 11.0336C297.706 14.9115 300.755 18.0682 304.499 18.0682C308.246 18.0682 311.293 14.9115 311.293 11.0336ZM315 11.0336C315 17.028 310.289 21.9044 304.499 21.9044C298.71 21.9044 294 17.028 294 11.0336C294 5.03918 298.71 0.163841 304.499 0.163841C310.289 0.163841 315 5.03918 315 11.0336Z" fill="white"/>
<path opacity="0.2" d="M407.183 138.746C407.183 133.996 403.449 130.131 398.861 130.131C394.273 130.131 390.54 133.996 390.54 138.746C390.54 143.496 394.273 147.362 398.861 147.362C403.449 147.362 407.183 143.496 407.183 138.746ZM411.721 138.746C411.721 146.088 405.952 152.061 398.861 152.061C391.769 152.061 386 146.088 386 138.746C386 131.404 391.769 125.431 398.861 125.431C405.952 125.431 411.721 131.404 411.721 138.746Z" fill="white"/>
<path opacity="0.2" d="M263.183 19.6904C263.183 14.9406 259.449 11.0755 254.861 11.0755C250.273 11.0755 246.54 14.9406 246.54 19.6904C246.54 24.4402 250.273 28.3065 254.861 28.3065C259.449 28.3065 263.183 24.4402 263.183 19.6904ZM267.721 19.6904C267.721 27.0325 261.952 33.0052 254.861 33.0052C247.769 33.0052 242 27.0325 242 19.6904C242 12.3483 247.769 6.37547 254.861 6.37547C261.952 6.37547 267.721 12.3483 267.721 19.6904Z" fill="white"/>
<g opacity="0.2">
<path d="M441.196 211.358H436.657V246.405H441.196V211.358Z" fill="white"/>
<path d="M455.853 226.531H422V231.231H455.853V226.531Z" fill="white"/>
</g>
<g opacity="0.2">
<path d="M158.257 40.5392H155.596V61.0927H158.257V40.5392Z" fill="white"/>
<path d="M166.853 49.4373H147V52.1937H166.853V49.4373Z" fill="white"/>
</g>
<g opacity="0.2">
<path d="M31.8719 125.431L16 141.863L18.1281 144.067L34 127.634L31.8719 125.431Z" fill="white"/>
<path d="M18.1281 125.431L16 127.634L31.8719 144.067L34 141.863L18.1281 125.431Z" fill="white"/>
</g>
<g opacity="0.2">
<path d="M351.872 43.645L336 60.0775L338.128 62.2806L354 45.8481L351.872 43.645Z" fill="white"/>
<path d="M338.128 43.645L336 45.8481L351.872 62.2806L354 60.0775L338.128 43.645Z" fill="white"/>
</g>
<path opacity="0.15" d="M354.835 291.236C305.16 290.85 194.187 297.419 107 311.364C19.8136 325.309 93.6073 356.553 153.694 343.241C213.78 329.929 255.728 372.317 329.243 358.008C402.759 343.699 412.465 291.685 354.835 291.236Z" fill="#606060"/>
<path d="M140.624 263.867C136.716 261.411 133.943 257.504 132.913 253.005C131.883 248.506 132.679 243.782 135.129 239.869L135.151 239.829L154.071 209.716C155.289 207.775 156.877 206.094 158.745 204.767C160.613 203.44 162.724 202.495 164.958 201.984C167.192 201.474 169.504 201.409 171.763 201.792C174.022 202.176 176.183 203.001 178.123 204.221C182.039 206.684 184.817 210.602 185.846 215.113C186.875 219.624 186.07 224.359 183.609 228.277L164.689 258.358C163.477 260.298 161.894 261.981 160.031 263.309C158.169 264.638 156.063 265.586 153.833 266.101C151.604 266.615 149.295 266.686 147.039 266.308C144.782 265.93 142.622 265.111 140.682 263.899L140.624 263.867Z" fill="#0F2336"/>
<path d="M205.299 274.485C199.911 282.23 187.789 285.261 178.145 281.22H178.095L142.532 266.359C132.893 262.318 129.449 252.773 134.841 245.019C140.229 237.265 152.414 234.244 162.049 238.284L197.586 253.172C207.221 257.177 210.687 266.714 205.326 274.463L205.299 274.485Z" fill="#0F2336"/>
<path d="M122.108 326.113L130.562 311.023L307.746 190.122L315.105 201.769L122.108 326.113Z" fill="#E6E7E8"/>
<path d="M348.392 183.298L318.311 202.348C316.373 203.581 314.039 204.032 311.781 203.611C309.524 203.19 307.51 201.927 306.147 200.078C304.785 198.229 304.175 195.932 304.441 193.65C304.707 191.369 305.829 189.274 307.58 187.788C307.896 187.503 308.237 187.248 308.599 187.025L338.681 167.974C340.356 166.903 342.336 166.413 344.317 166.578C346.299 166.743 348.171 167.555 349.645 168.888C351.12 170.222 352.115 172.003 352.477 173.958C352.84 175.913 352.55 177.933 351.652 179.706C351.277 180.482 350.783 181.194 350.188 181.816C349.657 182.387 349.053 182.885 348.392 183.298Z" fill="#353635"/>
<path d="M350.188 181.817L330.28 173.286L332.889 171.625L351.629 179.706C351.262 180.481 350.775 181.193 350.188 181.817Z" fill="#FCB91F"/>
<path d="M345.541 185.094L342.914 186.764L322.684 178.085L325.319 176.415L345.541 185.094Z" fill="#FCB91F"/>
<path d="M337.949 189.925L335.313 191.568L315.078 182.93L317.718 181.251L337.949 189.925Z" fill="#FCB91F"/>
<path d="M330.321 194.752L327.708 196.408L307.576 187.788C307.894 187.506 308.237 187.252 308.599 187.029L310.099 186.082L330.321 194.752Z" fill="#FCB91F"/>
<path d="M300.459 176.649L327.726 218.772L320.178 223.553L292.912 181.417L300.459 176.649Z" fill="#353635"/>
<path d="M339.516 335.883L332.292 320.168L165.327 185.507L157.061 196.534L339.516 335.883Z" fill="#E6E7E8"/>
<path d="M125.35 175.472L153.828 196.866C155.665 198.23 157.949 198.85 160.223 198.6C162.496 198.351 164.592 197.251 166.089 195.521C167.585 193.791 168.373 191.56 168.293 189.274C168.214 186.988 167.273 184.816 165.659 183.195C165.368 182.887 165.049 182.606 164.707 182.355L136.238 160.962C134.653 159.767 132.72 159.125 130.736 159.135C128.751 159.145 126.825 159.806 125.253 161.018C123.68 162.229 122.549 163.923 122.033 165.839C121.517 167.755 121.644 169.788 122.396 171.625C122.705 172.436 123.14 173.193 123.684 173.87C124.168 174.474 124.728 175.012 125.35 175.472Z" fill="#353635"/>
<path d="M123.693 173.843L144.216 166.924L141.751 165.065L122.418 171.625C122.725 172.426 123.155 173.175 123.693 173.843Z" fill="#FCB91F"/>
<path d="M128.053 177.498L130.54 179.374L151.395 172.334L148.903 170.462L128.053 177.498Z" fill="#FCB91F"/>
<path d="M135.236 182.899L137.733 184.753L158.592 177.753L156.096 175.872L135.236 182.899Z" fill="#FCB91F"/>
<path d="M142.456 188.322L144.93 190.181L165.686 183.186C165.39 182.879 165.069 182.598 164.725 182.346L163.306 181.287L142.456 188.322Z" fill="#FCB91F"/>
<path d="M173.669 172.658L143.125 212.473L150.264 217.838L180.807 178.018L173.669 172.658Z" fill="#353635"/>
<path d="M183.91 178.862L178.15 305.689H286.29H288.952V270.759L286.29 185.848L183.91 178.862Z" fill="#0F2336"/>
<path d="M181.252 265.012L284.009 267.867C285.515 267.646 287.035 267.526 288.557 267.508L289.419 264.285C285.45 264.123 288.894 263.647 288.993 263.279L288.517 252.414C288.418 252.041 288.835 250.119 287.686 250.263L181.683 247.502C181.524 247.507 181.373 247.574 181.263 247.689C181.153 247.804 181.092 247.958 181.095 248.117L180.848 258.322L180.7 264.347C180.691 264.428 180.699 264.509 180.722 264.586C180.745 264.663 180.784 264.735 180.835 264.797C180.887 264.859 180.95 264.91 181.022 264.947C181.093 264.984 181.172 265.006 181.252 265.012Z" fill="#091D28"/>
<path d="M290.151 205.042C290.21 205.721 290.231 206.403 290.214 207.085C290.169 208.71 288.377 210.012 286.213 210.021L184.036 210.47C182.379 210.47 181.032 209.482 181.014 208.225L181.261 206.344L290.151 205.042Z" fill="#091D28"/>
<path opacity="0.2" d="M306.022 102.963L251.696 103.542C251.305 103.546 250.918 103.473 250.555 103.328C250.193 103.182 249.863 102.966 249.584 102.692C249.305 102.419 249.082 102.093 248.929 101.733C248.777 101.374 248.696 100.988 248.693 100.597C248.685 99.809 248.991 99.0504 249.542 98.4874C250.093 97.9243 250.845 97.6028 251.633 97.5933L305.959 97.0411C306.748 97.0351 307.506 97.3416 308.069 97.8936C308.632 98.4456 308.954 99.1981 308.963 99.9864C308.961 100.769 308.651 101.519 308.101 102.076C307.551 102.633 306.805 102.951 306.022 102.963Z" fill="white"/>
<path d="M225.4 334.693C225.959 334.289 226.594 334.004 227.267 333.853C236.319 331.914 302.812 317.614 317.548 312.891C318.374 312.626 319.038 312.392 319.519 312.19C329.212 308.149 333.661 265.636 295.476 269.964L295 270.031C290.349 270.835 218.979 283.465 198.766 304.153L198.479 304.432C196.508 306.201 174.149 326.786 181.845 342.711C182.549 344.124 183.676 345.282 185.069 346.024C186.462 346.766 188.051 347.055 189.616 346.851C197.46 345.877 213.803 342.967 225.4 334.693Z" fill="#091D28"/>
<path d="M195.583 323.895C195.583 323.895 184.067 333.494 186.312 341.05C186.312 341.05 193.24 346.168 203.418 339.914C203.436 339.914 207.948 329.817 195.583 323.895Z" fill="#0F2336"/>
<path d="M245.577 334.28C244.932 333.79 244.194 333.437 243.408 333.243C233.76 330.904 168.429 315.014 153.887 309.936C153.07 309.649 152.347 309.51 151.938 309.187C137.724 297.859 139.039 262.354 176.987 267.594C177.22 267.625 177.436 267.665 177.682 267.71C183.236 268.828 253.205 283.258 272.798 304.261C272.933 304.405 273.067 304.544 273.211 304.679C275.227 306.601 291.772 322.84 290.488 337.288C290.353 338.756 289.914 340.181 289.2 341.471C288.486 342.761 287.511 343.888 286.338 344.781C285.164 345.674 283.818 346.314 282.385 346.66C280.952 347.005 279.462 347.049 278.011 346.788C269.606 345.298 255.705 341.841 245.577 334.28Z" fill="#0F2336"/>
<path d="M256.648 337.351C256.648 337.351 266.652 343.798 276.807 343.188C276.807 343.188 286.317 338.213 278.069 325.372C278.069 325.386 257.564 314.678 256.648 337.351Z" fill="#091D28"/>
<path d="M312.64 76.7068L188.305 77.9594C183.524 77.9993 178.807 79.0616 174.47 81.075C170.134 83.0884 166.278 86.0063 163.163 89.6328C162.517 90.3622 161.91 91.125 161.344 91.9181C157.083 97.7548 159.598 104.808 159.665 112.041L154.987 117.837L155.57 174.57C155.651 183.507 159.278 192.046 165.655 198.309C172.031 204.572 180.634 208.045 189.571 207.965H189.621L280.26 207.067C289.197 206.983 297.735 203.352 303.995 196.973C310.255 190.594 313.725 181.99 313.641 173.052V172.972L312.64 76.7068ZM291.987 144.017C291.997 145.158 291.901 146.297 291.7 147.42C290.941 151.525 288.78 155.239 285.586 157.927C282.392 160.615 278.364 162.11 274.19 162.156L200.535 162.897C196.366 162.931 192.313 161.518 189.069 158.897C185.825 156.277 183.591 152.613 182.747 148.529C182.527 147.41 182.411 146.272 182.401 145.131C182.363 140.36 184.219 135.769 187.561 132.366C190.903 128.962 195.46 127.023 200.23 126.974L273.862 126.238C278.624 126.19 283.211 128.036 286.612 131.369C290.014 134.702 291.952 139.25 292.001 144.013L291.987 144.017Z" fill="#0F2336"/>
<path d="M295.664 123.077H175.662V167.117H295.664V123.077Z" fill="#0F2336"/>
<path d="M174.095 145.005C174.095 146.228 174.208 147.449 174.432 148.651C175.281 153.034 177.626 156.986 181.065 159.833C184.504 162.68 188.824 164.246 193.289 164.262L272.147 164.388C276.614 164.391 280.944 162.841 284.394 160.004C287.845 157.167 290.202 153.219 291.062 148.835C291.288 147.633 291.403 146.413 291.408 145.189C291.408 140.092 289.387 135.202 285.789 131.592C282.19 127.982 277.307 125.945 272.21 125.928L193.356 125.83C188.26 125.82 183.368 127.834 179.756 131.43C176.145 135.026 174.108 139.909 174.095 145.005Z" fill="#F0977E"/>
<path d="M174.432 148.651C175.281 153.034 177.626 156.986 181.065 159.833C184.504 162.68 188.824 164.245 193.289 164.262L272.147 164.387C276.614 164.391 280.944 162.841 284.394 160.004C287.845 157.167 290.202 153.218 291.062 148.835C290.208 144.454 287.862 140.505 284.424 137.658C280.986 134.812 276.669 133.245 272.205 133.224L193.347 133.098C188.879 133.092 184.548 134.641 181.097 137.478C177.646 140.316 175.29 144.266 174.432 148.651Z" fill="#F9C197"/>
<path d="M124.681 79.1493L146.075 67L169.911 108.993L153.528 118.291L150.111 114.91L145.63 116.051L124.681 79.1493Z" fill="#F26E26"/>
<path d="M115.056 86.8202L110.876 111.165L158.654 119.369L162.834 95.0244L115.056 86.8202Z" fill="#F26E26"/>
<path d="M314.813 93.1348L315.078 118.946L155.44 120.545L155.382 114.807C155.298 107.565 157.579 100.494 161.879 94.6658L314.813 93.1348Z" fill="#F26E26"/>
<path opacity="0.37" d="M181.934 212.567L158.206 245.311L181.503 242.531L181.934 212.567Z" fill="black"/>
<path d="M329.782 267.374C331.721 266.16 333.402 264.576 334.729 262.713C336.057 260.85 337.004 258.743 337.516 256.514C338.029 254.285 338.098 251.976 337.718 249.72C337.339 247.465 336.518 245.306 335.304 243.367L335.277 243.326L316.362 213.214C313.902 209.295 309.986 206.514 305.475 205.483C300.965 204.451 296.229 205.254 292.311 207.714C290.368 208.932 288.684 210.522 287.356 212.392C286.028 214.262 285.082 216.375 284.571 218.611C284.061 220.847 283.996 223.162 284.381 225.423C284.766 227.684 285.593 229.847 286.815 231.788L305.739 261.869C306.951 263.809 308.534 265.491 310.396 266.82C312.258 268.148 314.364 269.097 316.593 269.611C318.822 270.126 321.13 270.196 323.386 269.818C325.642 269.441 327.802 268.622 329.742 267.409L329.782 267.374Z" fill="#0F2336"/>
<path d="M265.112 277.992C270.499 285.741 282.622 288.767 292.266 284.753H292.31L327.878 269.87C337.513 265.829 340.957 256.284 335.569 248.53C330.182 240.776 317.992 237.755 308.357 241.795L272.825 256.684C263.19 260.688 259.724 270.22 265.085 277.974L265.112 277.992Z" fill="#0F2336"/>
<path opacity="0.37" d="M288.476 216.078L312.2 248.822L288.903 246.043L288.476 216.078Z" fill="black"/>
<path fill-rule="evenodd" clip-rule="evenodd" d="M268.313 148.768L243.529 153.217C243.529 153.217 263.226 170.696 268.313 148.768Z" fill="#0F2336"/>
<path fill-rule="evenodd" clip-rule="evenodd" d="M201.806 148.768L226.585 153.217C226.585 153.217 206.866 170.696 201.806 148.768Z" fill="#0F2336"/>
<path opacity="0.11" d="M337.962 257.68C337.962 268.994 319.128 273.52 296.773 282.868C295.947 283.213 296.136 280.115 296.217 279.226L296.522 275.881C296.56 275.533 296.734 275.213 297.004 274.99C297.275 274.767 297.622 274.658 297.972 274.687C302.395 275.136 319.595 274.66 335.547 255.318C336.297 254.407 337.962 256.481 337.962 257.68Z" fill="#47A6FF"/>
<path opacity="0.11" d="M132.435 253.873C132.511 259.179 137.023 270.435 172.236 274.718C172.442 274.74 172.65 274.713 172.843 274.641C173.037 274.57 173.212 274.454 173.354 274.304C173.496 274.154 173.601 273.973 173.662 273.775C173.723 273.578 173.737 273.369 173.705 273.165L173.094 269.861C173.062 269.689 172.997 269.525 172.901 269.379C172.806 269.233 172.682 269.107 172.538 269.009C172.393 268.91 172.231 268.842 172.059 268.807C171.888 268.772 171.712 268.772 171.54 268.805C167.176 269.636 152.333 270.736 134.693 252.925C134.503 252.751 134.267 252.634 134.013 252.59C133.759 252.545 133.498 252.574 133.26 252.674C133.022 252.774 132.818 252.94 132.672 253.152C132.525 253.365 132.443 253.615 132.435 253.873Z" fill="#47A6FF"/>
<path d="M176.335 283.128L146.802 143.64C144.844 134.4 151.476 125.614 160.464 125.533L309.632 124.186C318.733 124.101 325.53 132.963 323.55 142.307L295.17 275.518C293.716 282.338 287.946 287.191 281.306 287.133L180.744 286.5" fill="url(#paint0_linear_839_740)"/>
<path d="M288.041 287.99H183.196C181.149 287.992 179.169 287.267 177.607 285.945C176.045 284.623 175.002 282.789 174.665 280.771L162.022 205.343C161.815 204.104 161.88 202.834 162.213 201.622C162.546 200.411 163.139 199.286 163.951 198.327C164.763 197.368 165.775 196.598 166.915 196.07C168.055 195.541 169.296 195.268 170.553 195.268H300.679C301.936 195.268 303.178 195.541 304.318 196.07C305.458 196.598 306.469 197.368 307.281 198.327C308.093 199.286 308.686 200.411 309.019 201.622C309.352 202.834 309.417 204.104 309.21 205.343L296.567 280.771C296.23 282.789 295.188 284.621 293.627 285.943C292.066 287.265 290.086 287.991 288.041 287.99Z" fill="#D38C24"/>
<path d="M288.041 287.99H183.196C181.183 288.019 179.223 287.337 177.663 286.065C176.103 284.792 175.041 283.009 174.665 281.031L162.022 208.297C161.124 203.215 165.206 198.586 170.553 198.586H300.679C306.027 198.586 310.108 203.215 309.21 208.297L296.567 281.031C296.191 283.009 295.13 284.79 293.571 286.063C292.012 287.336 290.053 288.018 288.041 287.99Z" fill="#FFB947"/>
<path fill-rule="evenodd" clip-rule="evenodd" d="M229.539 247.78L235.735 249.473C235.735 249.473 230.76 253.909 229.539 247.78Z" fill="white"/>
<path fill-rule="evenodd" clip-rule="evenodd" d="M244.284 248.952L238.088 249.747C238.088 249.747 243 254.896 244.284 248.952Z" fill="white"/>
<path d="M231.021 243.91L244.041 244.857V237.768L231.021 236.821C228.962 236.545 226.87 236.988 225.099 238.073C223.544 239.125 222.383 240.663 221.799 242.446C221.11 244.605 220.781 246.862 220.825 249.127C220.778 251.437 221.101 253.739 221.781 255.947C222.392 257.848 223.537 259.533 225.081 260.8C226.781 262.113 228.856 262.85 231.003 262.902L244.023 263.849V256.76L231.003 255.812C229.355 255.691 228.197 255.076 227.46 254.016C226.724 252.957 226.302 251.457 226.302 249.527C226.302 245.58 227.829 243.69 231.003 243.914L231.021 243.91Z" fill="white"/>
<path d="M245.213 244.215L244.257 244.745V237.66L246.282 236.533V242.397C246.281 242.768 246.182 243.132 245.994 243.451C245.807 243.771 245.537 244.035 245.213 244.215Z" fill="white"/>
<path d="M246.282 262.659L244.257 263.786V256.697C244.464 256.576 244.699 256.513 244.938 256.513C245.178 256.514 245.413 256.579 245.619 256.7C245.826 256.822 245.996 256.996 246.112 257.206C246.229 257.415 246.287 257.652 246.282 257.891V262.659Z" fill="white"/>
<defs>
<linearGradient id="paint0_linear_839_740" x1="274.149" y1="142.387" x2="161.802" y2="277.444" gradientUnits="userSpaceOnUse">
<stop stop-color="white" stop-opacity="0.1"/>
<stop offset="0.23" stop-color="#FCFEFE" stop-opacity="0.11"/>
<stop offset="0.39" stop-color="#F4F9FB" stop-opacity="0.16"/>
<stop offset="0.52" stop-color="#E6F2F5" stop-opacity="0.24"/>
<stop offset="0.64" stop-color="#D2E7ED" stop-opacity="0.36"/>
<stop offset="0.75" stop-color="#B8D9E3" stop-opacity="0.51"/>
<stop offset="0.86" stop-color="#99C9D7" stop-opacity="0.69"/>
<stop offset="0.96" stop-color="#74B5C9" stop-opacity="0.9"/>
<stop offset="1" stop-color="#63ACC2"/>
</linearGradient>
</defs>
</svg>
